# xmcd
#
# Track frame offsets: 
#        150
#        14186
#        27592
#        39997
#        54620
#        67723
#        82301
#        96385
#        109458
#        121627
#        135504
#        150044
#        164736
#        188785
#        202757
#        217576
#        232037
#        247418
#        260460
#        273554
#
# Disc length: 3812 seconds
#
# Revision: 4
# Processed by: cddbd v1.5.2PL0 Copyright (c) Steve Scherf et al.
# Submitted via: ExactAudioCopy v1.0b4
#
DISCID=1d0ee214
DTITLE=Various Artist - Blues in History IV CD2
DYEAR=1900
DGENRE=Blues
TTITLE0=Count Basie and his Orchestra - Count Basie and his Orchestra - Bl
TTITLE0=ues In The Dark
TTITLE1=Count Basie and his Orchestra - Count Basie and his Orchestra - Se
TTITLE1=nt For You Yesterday
TTITLE2=Benny  Goodman and his orchestra - Benny  Goodman and his orchestr
TTITLE2=a - He Aint' Got Rhythm
TTITLE3=Count Basie and his Orchestra - Count Basie and his Orchestra - Go
TTITLE3=od Morning Blues
TTITLE4=Jay  McShann and his Orchestra - Jay  McShann and his Orchestra - 
TTITLE4=Hootie Blues
TTITLE5=Varsity Seven and Joe Turner - Varsity Seven and Joe Turner- How L
TTITLE5=ong Blues
TTITLE6=Pete Johnson and his Band - Pete Johnson and his Band - 627 Stomp
TTITLE7=Billie Holiday - Billie Holiday - St. Louis Blues
TTITLE8=Count Basie and his Orchestra - Count Basie and his Orchestra - Do
TTITLE8=You Wanna Jump, Children?
TTITLE9=Count Basie and his Orchestra - Count Basie and his Orchestra - La
TTITLE9=zy Lady Blues
TTITLE10=Count Basie and his Orchestra - Count Basie and his Orchestra - T
TTITLE10=he Blues I Like To Hear
TTITLE11=Count Basie and his Orchestra - Count Basie and his Orchestra - E
TTITLE11=vil Blues
TTITLE12=Jimmie Lunceford - Jimmie Lunceford - Blues In The Night
TTITLE13=Jay  McShann and his Orchestra - Jay  McShann and his Orchestra -
TTITLE13=The Jumpin' Blues
TTITLE14=Louis Armstrong - Louis Armstrong -Back O' Town Blues
TTITLE15=Count Basie and his Orchestra - Count Basie and his Orchestra - D
TTITLE15=on't You Miss Your Baby?
TTITLE16=Count Basie and his Orchestra - Count Basie and his Orchestra - G
TTITLE16=oin' To Chicago Blues
TTITLE17=Count Basie and his Orchestra - Count Basie and his Orchestra - N
TTITLE17=ow Will You Be Good?
TTITLE18=Count Basie and his Orchestra - Count Basie and his Orchestra - J
TTITLE18=immy's Blues
TTITLE19=Count Basie and his Orchestra - Count Basie and his Orchestra - S
TTITLE19=winging The Blues
EXTD=
EXTT0=
EXTT1=
EXTT2=
EXTT3=
EXTT4=
EXTT5=
EXTT6=
EXTT7=
EXTT8=
EXTT9=
EXTT10=
EXTT11=
EXTT12=
EXTT13=
EXTT14=
EXTT15=
EXTT16=
EXTT17=
EXTT18=
EXTT19=
PLAYORDER=
